<svg width="26" height="26" viewBox="0 0 26 26" fill="none" xmlns="http://www.w3.org/2000/svg">
<path d="M25.0539 3.18719L22.8135 0.946105C22.2033 0.335855 21.3917 0 20.5287 0C19.6658 0 18.8545 0.335855 18.2443 0.946467L12.3171 6.87327C11.0575 8.13282 11.0575 10.1823 12.3175 11.4422L12.6707 11.7954L11.7958 12.6703L11.4426 12.3171C10.8323 11.7068 10.0211 11.3706 9.15811 11.3706C8.29515 11.3706 7.48353 11.7068 6.87328 12.3171L0.946115 18.2439C-0.313069 19.5038 -0.312707 21.5536 0.946838 22.8128L3.18683 25.0528C3.79708 25.6634 4.6087 26 5.47202 26C6.33498 26 7.14587 25.6641 7.75648 25.0539L13.6826 19.1271C14.2928 18.5168 14.629 17.7052 14.629 16.8423C14.629 15.9793 14.2928 15.1677 13.6826 14.5578L13.329 14.2042L14.2039 13.329L14.5578 13.6829C15.1681 14.2932 15.9797 14.6294 16.8423 14.6294C17.7049 14.6294 18.5165 14.2932 19.1267 13.6833L25.0535 7.75647C25.6638 7.14622 26 6.33496 26 5.47201C26 4.60905 25.6642 3.79707 25.0539 3.18719ZM12.1493 16.0917C12.35 16.2924 12.4606 16.5588 12.4606 16.8423C12.4606 17.1257 12.35 17.3921 12.1493 17.5931L6.2229 23.52C5.82197 23.9209 5.12279 23.9212 4.72114 23.5196L2.48078 21.2789C2.06684 20.8649 2.06684 20.1914 2.48042 19.7775L8.40722 13.8514C8.60787 13.6507 8.87467 13.5405 9.15847 13.5405C9.4419 13.5405 9.70834 13.6507 9.90935 13.8514L10.2626 14.2046L8.9947 15.4725L10.5283 17.006L11.7961 15.7382L12.1493 16.0917ZM23.5203 6.22253L17.5935 12.149C17.193 12.5499 16.4938 12.5503 16.0918 12.149L15.7382 11.7954L17.6177 9.91585L16.0842 8.38191L14.2042 10.2618L13.851 9.90862C13.4371 9.49431 13.4367 8.82116 13.8507 8.40721L19.7775 2.48041C19.9781 2.27976 20.2449 2.1695 20.5284 2.1695C20.8122 2.1695 21.079 2.28012 21.2796 2.48041L23.52 4.72113C23.7206 4.92177 23.8309 5.18821 23.8309 5.47201C23.8309 5.75581 23.7206 6.02225 23.5203 6.22253Z" fill="#D3D3D3"/>
</svg>
