<svg width="23" height="23" viewBox="0 0 23 23" fill="none" xmlns="http://www.w3.org/2000/svg">
<path d="M17.7431 8.40653H17.5313V6.03096C17.5316 2.70545 14.8265 0 11.501 0C8.17549 0 5.47004 2.70545 5.47004 6.03096V8.40653H5.25785C3.36042 8.40653 1.81641 9.95054 1.81641 11.8483V19.5582C1.81641 21.456 3.36042 23 5.25785 23H17.7435C19.6409 23 21.1849 21.456 21.1849 19.5582V11.8483C21.1846 9.95054 19.6405 8.40653 17.7431 8.40653ZM7.57791 6.03096C7.57791 3.86794 9.33728 2.10787 11.501 2.10787C13.664 2.10787 15.4237 3.86759 15.4237 6.03096V8.40653H7.57791V6.03096ZM19.0767 19.5586C19.0767 20.2942 18.4784 20.8925 17.7431 20.8925H5.25785C4.52256 20.8925 3.92427 20.2942 3.92427 19.5586V11.8483C3.92427 11.1127 4.52256 10.5144 5.25785 10.5144H17.7435C18.4788 10.5144 19.077 11.1127 19.077 11.8483L19.0767 19.5586Z" fill="#CDCDCD"/>
<path d="M11.5005 13.0557C10.3338 13.0557 9.3877 14.0014 9.3877 15.1685C9.3877 15.9508 9.81419 16.6324 10.4465 16.9977V19.3466H12.5544V16.9977C13.1868 16.6324 13.6133 15.9508 13.6133 15.1685C13.6133 14.0014 12.6672 13.0557 11.5005 13.0557Z" fill="#CDCDCD"/>
</svg>
