<svg width="26" height="26" viewBox="0 0 26 26" fill="none" xmlns="http://www.w3.org/2000/svg">
<g clip-path="url(#clip0)">
<path d="M25.3671 0.630493C24.7509 0.0134362 23.7908 -0.171853 22.982 0.178904L1.29322 9.63772C0.464585 9.99882 -0.0533638 10.8477 0.00437759 11.7496C0.0616881 12.651 0.683054 13.4271 1.55004 13.6805L9.88117 16.1151L12.3158 24.4467C12.5692 25.3136 13.3452 25.935 14.2406 25.9923C14.2889 25.9958 14.3359 25.9971 14.3841 25.9971C15.2408 25.9971 16.016 25.4895 16.3585 24.7039L25.8174 3.01513C26.175 2.19684 25.9979 1.26048 25.3671 0.630493ZM14.4647 22.5808L11.9663 14.0308L3.41629 11.5324L23.0096 2.98755L14.4647 22.5808Z" fill="white"/>
</g>
<defs>
<clipPath id="clip0">
<rect width="26" height="26" fill="white"/>
</clipPath>
</defs>
</svg>
