<svg width="14" height="14" viewBox="0 0 14 14" fill="none" xmlns="http://www.w3.org/2000/svg">
<g opacity="1">
<path d="M6.1653 0C2.76585 0 0 2.76585 0 6.1653C0 9.56495 2.76585 12.3306 6.1653 12.3306C9.56495 12.3306 12.3306 9.56495 12.3306 6.1653C12.3306 2.76585 9.56495 0 6.1653 0ZM6.1653 11.1924C3.39339 11.1924 1.13821 8.93725 1.13821 6.16533C1.13821 3.39341 3.39339 1.13821 6.1653 1.13821C8.93722 1.13821 11.1924 3.39339 11.1924 6.1653C11.1924 8.93722 8.93722 11.1924 6.1653 11.1924Z" fill="black"/>
<path d="M13.834 13.0283L10.5711 9.76538C10.3488 9.54305 9.98869 9.54305 9.76636 9.76538C9.54403 9.98752 9.54403 10.348 9.76636 10.5701L13.0292 13.833C13.1404 13.9441 13.2859 13.9997 13.4316 13.9997C13.5771 13.9997 13.7228 13.9441 13.834 13.833C14.0563 13.6108 14.0563 13.2504 13.834 13.0283Z" fill="black"/>
</g>
</svg>
