<svg width="29" height="29" viewBox="0 0 29 29" fill="none" xmlns="http://www.w3.org/2000/svg">
<path d="M14.5 29C22.5081 29 29 22.5081 29 14.5C29 6.49187 22.5081 0 14.5 0C6.49187 0 0 6.49187 0 14.5C0 22.5081 6.49187 29 14.5 29Z" fill="#039BE5"/>
<path d="M6.6354 14.1858L20.6158 8.79546C21.2647 8.56105 21.8314 8.95376 21.6211 9.93492L21.6224 9.93371L19.2419 21.1483C19.0655 21.9433 18.5931 22.1367 17.9321 21.7621L14.3071 19.0905L12.5586 20.7749C12.3653 20.9682 12.2022 21.1313 11.8276 21.1313L12.085 17.4423L18.8033 11.3728C19.0957 11.1155 18.7381 10.9705 18.3526 11.2266L10.0501 16.4539L6.47106 15.3374C5.69411 15.0909 5.67719 14.5604 6.6354 14.1858Z" fill="white"/>
</svg>
