<svg width="27" height="27" viewBox="0 0 27 27" fill="none" xmlns="http://www.w3.org/2000/svg">
<path d="M19.0646 14.1059C20.6561 12.6164 21.6581 10.5042 21.6581 8.15729C21.6581 3.65954 17.9985 0 13.5008 0C9.00305 0 5.34351 3.65954 5.34351 8.15729C5.34351 10.5042 6.34544 12.616 7.93658 14.1059C5.48175 16.2178 2.14648 19.116 2.14648 25.8049V27H24.8539V25.8049C24.8543 19.1164 21.5194 16.2178 19.0646 14.1059ZM7.7338 8.15769C7.7338 4.97779 10.3209 2.3907 13.5008 2.3907C16.6803 2.3907 19.2678 4.97779 19.2678 8.15769C19.2678 11.3376 16.6807 13.9251 13.5008 13.9251C10.3209 13.9247 7.7338 11.3376 7.7338 8.15769ZM4.57941 24.6097C4.92799 19.8462 7.36211 17.7523 9.52892 15.8887C9.59186 15.8341 9.65441 15.7807 9.71695 15.727C10.9037 16.2357 12.1961 16.5074 13.51 16.5174C14.8083 16.5074 16.0975 16.2357 17.2842 15.727C17.346 15.7807 17.4089 15.8345 17.4723 15.8887C19.6387 17.7523 22.0732 19.8462 22.4218 24.6097H4.57941Z" fill="white"/>
</svg>
