<svg width="29" height="29" viewBox="0 0 29 29" fill="none" xmlns="http://www.w3.org/2000/svg">
<path d="M14.5036 0H14.4964C6.50144 0 0 6.50325 0 14.5C0 17.6719 1.02225 20.6117 2.76044 22.9988L0.953375 28.3856L6.52681 26.6039C8.81962 28.1228 11.5547 29 14.5036 29C22.4986 29 29 22.4949 29 14.5C29 6.50506 22.4986 0 14.5036 0Z" fill="#4CAF50"/>
<path d="M22.9415 20.4757C22.5917 21.4635 21.2033 22.2828 20.0959 22.522C19.3382 22.6833 18.3486 22.812 15.0172 21.4309C10.756 19.6655 8.01192 15.3355 7.79805 15.0545C7.59323 14.7736 6.07617 12.7617 6.07617 10.681C6.07617 8.60021 7.13286 7.58702 7.5588 7.15202C7.90861 6.79496 8.4868 6.63184 9.04142 6.63184C9.22086 6.63184 9.38217 6.6409 9.52717 6.64815C9.95311 6.66627 10.167 6.69165 10.4479 7.36409C10.7977 8.2069 11.6496 10.2876 11.7511 10.5015C11.8544 10.7154 11.9577 11.0054 11.8127 11.2863C11.6768 11.5763 11.5572 11.705 11.3433 11.9515C11.1294 12.198 10.9264 12.3865 10.7125 12.6511C10.5168 12.8813 10.2957 13.1278 10.5422 13.5538C10.7887 13.9706 11.6405 15.3608 12.8948 16.4773C14.5134 17.9183 15.8256 18.3786 16.295 18.5744C16.6449 18.7194 17.0617 18.685 17.3173 18.4131C17.6417 18.0633 18.0423 17.4833 18.4501 16.9123C18.7401 16.5027 19.1062 16.452 19.4905 16.597C19.882 16.7329 21.9537 17.757 22.3796 17.969C22.8055 18.1829 23.0865 18.2844 23.1898 18.4638C23.2913 18.6433 23.2913 19.4861 22.9415 20.4757Z" fill="#FAFAFA"/>
</svg>
